<svg width="100%" height="100%" viewBox="0 0 237.2 118.2" xmlns="http://www.w3.org/2000/svg"><g id="svgGroup" stroke-linecap="round" fill-rule="evenodd" font-size="9pt" stroke="#ffe100" stroke-width="0.25mm" fill="#ffe100"><path d="M 96.5 28.2 L 96.5 11.8 L 129.9 11.8 L 129.9 28.2 L 125.9 28.2 L 108 89.6 L 75.6 89.6 L 57.7 28.2 L 53.7 28.2 L 53.7 11.8 L 92.1 11.8 L 92.1 28.2 L 86.9 28.2 L 93.8 61.7 L 94.8 61.7 L 101.7 28.2 L 96.5 28.2 Z M 207.7 11.8 L 207.7 36 L 190.5 36 L 190.5 28.2 L 184.1 28.2 L 184.1 73.2 L 191.1 73.2 L 191.1 89.6 L 149.1 89.6 L 149.1 73.2 L 156.1 73.2 L 156.1 28.2 L 149.7 28.2 L 149.7 36 L 132.5 36 L 132.5 11.8 L 207.7 11.8 Z M 27.9 105.3 L 26.7 118.2 L 0 115.9 L 0 2.3 L 26.7 0 L 27.9 12.9 L 16.8 15.2 L 16.8 103 L 27.9 105.3 Z M 237.2 115.9 L 210.5 118.2 L 209.3 105.3 L 220.4 103 L 220.4 15.2 L 209.3 12.9 L 210.5 0 L 237.2 2.3 L 237.2 115.9 Z M 47.7 57.1 L 32.1 57.1 L 32.1 40.7 L 47.7 40.7 L 47.7 57.1 Z M 47.7 89.6 L 32.1 89.6 L 32.1 73.2 L 47.7 73.2 L 47.7 89.6 Z" vector-effect="non-scaling-stroke"/></g></svg>